# xmcd CD database file
#
# Track frame offsets:
#	183
#	24833
#	44800
#	66768
#	84665
#	116535
#	142945
#	160740
#	180893
#
# Disc length: 2518 seconds
#
# Revision: 0
# Processed by: cddbd v1.5.1PL2 Copyright (c) Steve Scherf et al.
# Submitted via: CDex 1.51
#
DISCID=6a09d409
DTITLE=Juke - Live At The Grand Cafe
DYEAR=1900
DGENRE=Blues
TTITLE0=Sax Rap
TTITLE1=All Night Boogie
TTITLE2=Get Up
TTITLE3=Check Your Change
TTITLE4=Bad Man
TTITLE5=She Cargo Blues
TTITLE6=Clap Your Hands
TTITLE7=Boppin' For Kicks
TTITLE8=Gazamatazz
EXTD=
EXTT0=
EXTT1=
EXTT2=
EXTT3=
EXTT4=
EXTT5=
EXTT6=
EXTT7=
EXTT8=
PLAYORDER=
